<?xml version="1.0" encoding="UTF-8"?>
<svg version="1.1" xmlns="http://www.w3.org/2000/svg" width="751" height="500">
<path d="M0 0 C247.83 0 495.66 0 751 0 C751 165 751 330 751 500 C503.17 500 255.34 500 0 500 C0 335 0 170 0 0 Z " fill="#23343C" transform="translate(0,0)"/>
<path d="M0 0 C95.55566193 0 95.55566193 0 109.3125 13.09765625 C115.37086983 19.92734631 117.49348265 26.10167593 117.40234375 35.1953125 C115.46008753 53.5618907 102.66025627 67.77998345 91.29345703 81.38110352 C90.11311692 82.85842237 89.04890768 84.42663848 88 86 C84.00499382 84.6302836 81.19990508 82.74277578 78 80 C79.44441702 75.61886771 81.67023568 72.77334376 84.6875 69.3125 C94.2178853 58.13989257 104.44116163 45.5190104 104.21484375 30.1796875 C103.80314259 26.00279213 101.81253704 23.81253704 98.9375 20.9375 C75.22264013 5.29578391 33.47306826 12.34084235 12 12 C12 53.91 12 95.82 12 139 C21.96772665 131.52420501 31.63513919 124.15113397 41 116 C41.85207031 115.26007813 42.70414062 114.52015625 43.58203125 113.7578125 C45.39350813 112.17792548 47.20020855 110.59316887 49 109 C52.19445695 110.39713612 54.18934812 112.02532898 56.5625 114.5625 C61.37107302 119.4861954 66.61807468 123.72205936 72 128 C73.12030473 128.91082763 74.2400787 129.82230841 75.359375 130.734375 C89.08643004 142.6770361 89.08643004 142.6770361 105.5 148.25 C106.69109375 148.28867187 106.69109375 148.28867187 107.90625 148.328125 C108.94265625 148.16570312 108.94265625 148.16570312 110 148 C112.49652979 144.25520532 112.73270755 141.33388723 112 137 C105.5137666 121.0048225 85.54454005 110.17080906 72.03295898 100.59570312 C62.41149608 93.76337095 53.22267294 86.63403106 44.65234375 78.5078125 C43.11305812 77.05240547 41.55240043 75.61779923 39.94140625 74.2421875 C33.48538875 68.51948157 28.96267671 60.16902206 27.38671875 51.70703125 C27.13035351 45.92782618 27.91726968 41.43902609 31.390625 36.74609375 C37.72593334 29.87259174 44.57585622 26.44469195 53.859375 25.68359375 C63.57459324 25.29819298 71.84325069 26.74942655 81 30 C80.52269162 31.4589426 80.04308958 32.91713496 79.5625 34.375 C79.29566406 35.18710938 79.02882813 35.99921875 78.75390625 36.8359375 C78 39 78 39 77 41 C69.42922976 40.11674347 69.42922976 40.11674347 67.08984375 39.48046875 C59.45236521 37.72456247 51.00537445 38.47431921 44 42 C41.69403953 43.46288557 41.69403953 43.46288557 41 46 C40.42103827 53.37805078 43.43292642 58.46500753 48 64 C58.86577156 76.5229066 73.16132392 85.7180698 86.53344727 95.32861328 C120.22591808 119.57071206 120.22591808 119.57071206 125 134 C125.84018036 141.63001002 125.78093884 148.71337587 121 155 C116.50280259 159.38188466 111.81190323 161.29380166 105.5625 161.5625 C88.90063787 161.21580275 73.01428529 146.08941784 61.23657227 135.55419922 C57.32906756 132.06800194 53.30987243 128.97783012 49 126 C48.35675781 126.60585938 47.71351563 127.21171875 47.05078125 127.8359375 C34.91701302 139.08693515 21.59146308 148.60334538 8 158 C7.41718262 158.40895508 6.83436523 158.81791016 6.23388672 159.23925781 C2.23093174 162 2.23093174 162 0 162 C0 108.54 0 55.08 0 0 Z " fill="#F9FAFB" transform="translate(313,169)"/>
</svg>
